<?xml version="1.0" encoding="UTF-8"?><svg id="b" xmlns="http://www.w3.org/2000/svg" viewBox="0 0 168.12 174.6"><defs><style>.d{fill:#646464;}.d,.e,.f{stroke-width:0px;}.e{fill:#fff;}.f{fill:#fcbe26;}</style></defs><g id="c"><path class="f" d="m121.22,12c-.75,3.03-1.92,6.63-3.82,10.49-3.13,6.42-7.01,11.01-10.03,14.05-1.89-2.21-4.03-4.54-6.46-6.91-2.59-2.51-5.12-4.71-7.51-6.61,3.22-2.69,8.51-6.42,15.84-8.8,4.6-1.48,8.74-2.03,11.98-2.21Z"/><path class="f" d="m154.13,118.75c-2.17-.59-5.86-1.27-10.32-.55-2.99.48-5.37,1.43-7.03,2.25-.04-.96-.19-2.29-.68-3.8-.48-1.52-1.13-2.7-1.69-3.52,2.48.27,5.25.74,8.25,1.48,4.51,1.14,8.35,2.66,11.47,4.14Z"/><path class="f" d="m161.39,144.56c-4.51-.33-10.18-.29-16.59.81-3.9.68-7.36,1.6-10.34,2.61.23-1.31.44-2.63.64-3.96.21-1.35.41-2.69.6-4.02,2.92-.18,6.37-.17,10.21.29,6.43.8,11.68,2.58,15.48,4.26Z"/><path class="f" d="m168.12,131.43c-5.04-1.02-12.25-1.79-20.68-.49-4.06.62-7.61,1.6-10.59,2.65.13-1.2.23-2.51.25-3.9.03-1.5,0-2.88-.11-4.14,3.2-.06,6.77.08,10.61.53,8.29,1.01,15.22,3.19,20.51,5.36Z"/><path class="e" d="m113.26,162c-3.92,9.41-16.16,14.85-26.98,11.7-4.84-1.41-9.13-3.77-12.6-8.97,13.03-.29,24.58-2.68,34.68-9.82,1.62-1.14,2.51-.61,3.69.62,1.85,1.95,2.3,3.88,1.21,6.47Z"/><path class="e" d="m131.98,130.46c-.02.55-.05,1.13-.11,1.77-.02.16-.03.32-.04.49-.03.29-.07.6-.1.91-.02.17-.03.33-.06.49-.03.22-.06.44-.09.67-.11.73-.24,1.48-.42,2.26-.1.47-.22.94-.34,1.43,0,.03-.02.08-.03.11-.04.2-.1.4-.17.6-.03.12-.06.23-.1.34-.03.12-.07.23-.1.34-.1.33-.21.65-.33.98-.03.09-.07.18-.1.29-.03.09-.07.18-.1.29-.14.38-.29.76-.45,1.15-.34.81-.71,1.63-1.14,2.44-.09.18-.18.34-.28.51-.09.17-.18.34-.29.52h0s0,.02,0,.02c-.13.23-.28.48-.43.71-.15.26-.32.51-.49.76-.17.26-.34.51-.52.76-.18.25-.36.5-.55.75-.5.67-1.02,1.3-1.55,1.89-.21.23-.42.46-.63.68l-.17.17c-.26.28-.53.54-.79.79h0c-.05,0-.11-.03-.17-.06-.07-.02-.13-.04-.21-.08-.13-.06-.29-.12-.44-.19-.08-.03-.16-.07-.24-.11-.17-.08-.34-.18-.51-.28-.09-.05-.18-.11-.28-.17-.51-.34-2.63-1.71-3.2-3.95-.34-1.34,0-2.55.3-3.37.07-.19.14-.36.2-.51.06-.15.13-.3.21-.45.08-.15.16-.3.24-.46.08-.15.18-.31.27-.46.09-.16.19-.31.3-.47.1-.16.21-.31.33-.47s.23-.32.36-.48c.24-.32.5-.64.78-.96.16-.18.32-.36.49-.55.34-.36.68-.73,1.03-1.08.28-.28.56-.55.85-.83l.02-.02s.03-.03.03-.03c.18-.18.37-.35.55-.52,1-.91,2.02-1.79,3.01-2.58.24-.2.49-.39.73-.59.36-.29.71-.55,1.05-.81.04-.03.08-.07.13-.1.27-.2.52-.39.76-.57.55-.4,1.03-.76,1.45-1.06.16-.12.31-.22.44-.31.03-.03.05-.04.08-.05.1-.08.19-.13.28-.19.18-.13.32-.22.43-.29.03-.02.05-.03.07-.05.03-.02.04-.03.06-.04h0Z"/><path class="f" d="m128.37,111.96h.03c-11.58-17.74-15.15-23.36-16.44-25.45-.11-.19-.33-.51-.58-.96-.98-1.66-2.93-5.3-4.24-10.13-1.12-4.22-1.58-8.61-1.35-13.2,0-.18.02-.35.03-.53.02-.17.04-.34.07-.5,0-.03,0-.06.02-.08.05-.31.12-.61.2-.9.05-.16.1-.31.16-.45.04-.1.08-.19.13-.29.08-.18.17-.34.28-.5h0c.71-1.16,1.9-1.82,3.71-1.8,1.02.02,1.79.41,2.21.62,1.29.66,4.06,2.59,5.26,6.14.07.19.12.38.17.56.04.18.09.37.13.55.08.35.13.7.17,1.04.11.99.08,1.92-.05,2.77-.02.13-.04.27-.07.4-.03.13-.05.27-.08.39-.05.25-.12.49-.18.73-.1.34-.2.67-.31.96-.33.86-.65,1.47-.78,1.69.02-.03.04-.04.06-.07,2.59-3.36,3.87-5.94,4.44-7.89.03-.13.07-.26.1-.39.12-.47.18-.9.23-1.28.02-.13.03-.27.03-.4,0-.27,0-.51,0-.74-.05-.91-.28-1.54-.47-1.94-.57-1.21-1.37-1.64-7.36-6.62-1.39-1.17-3.18-2-4.17-3.53C92.76,24.01,67.79,13.58,37.61,13.54c-2.92,0-6.84-1.34-8.63.53-.09.09-.18.18-.25.28-1.54,2.12,2.11,5.02,2.83,7.8.14.54.33,1.07.53,1.58.72,1.99,1.28,3.96.3,5.62-.05.09-.11.18-.17.27-.13.21-.3.41-.51.61-.29.29-.65.56-1.07.82-2.59,1.54-4.19.17-5.69-1.44-2.13-8.82-6.25-18.33-14.48-24.52C6.58,2.16,2.75.75.07.02v-.02h-.07v106.34s0,.08,0,.13c0-.04,0-.07,0-.11,0-.03,0-.07.03-.12.96-3.81,2.72-6.41,3.69-7.93,1.76-2.73,5.01-7.01,10.64-10.96h0s0,0,0,0c-.65-2.08-1.24-4.19-1.99-6.24-.87-2.38-.76-4.46,1.88-5.39,2.7-.96,4.1.89,4.92,3.08.64,1.71,1.17,3.46,1.7,5.21.13.44.27.89.41,1.33.06.21.13.42.19.63.06.21.13.42.19.63h0s0,0,0,0h0c.08,0,.18,0,.26,0h.03c.19,0,.39.02.59.02.61.04,1.18.08,1.78.16.29.04.58.07.87.13.26.03.5.07.76.13.27.04.5.1.77.14.34.07.68.15,1.02.24l.62.15.2.06.07.02c.24.07.48.13.72.21.05.02.09.03.15.04.23.07.48.15.72.23.05.03.11.03.15.05.23.07.45.15.68.23.2.07.42.15.63.23.07.03.13.04.18.07.11.03.21.07.31.12.75.28,1.48.56,2.22.87.14.06.29.12.43.17.39.18.8.34,1.19.52h.02c.64.28,1.27.56,1.9.83.33.14.64.29.95.43.33.14.64.29.95.41h.02c.15.07.31.14.47.21.15.08.31.14.46.2,0,0-.02,0-.04.02-.02,0-.05.02-.08.02.06-.01.1-.02.13-.03h0c1.4.17,2.56.35,3.43.48,1.29.2,1.78.31,2.13.39.5.11,1.35.32,2.5.71h0c.87.29,1.59.53,2.15.75.93.35,1.49.65,1.77,1.06.73,1.03.8,2.66.09,3.76,0,0-.11.13-.1.14,0,0,0,0,0,0,.18.1.37.23.55.35.08.06.18.13.29.2.27.2.51.41.76.64.13.11.26.23.37.34l.17.17c.18.18.36.38.51.56v.02c.23.25.43.52.61.81.1.14.2.29.29.44v.03s0-.02,0-.03t0,0c1.7-1.9,5.07-.72,5.42-.59.06.02.12.04.19.07.42.16,1.07.47,1.7,1.04,0,0,.01.01.02.02.02.02.03.03.05.05,0,0,.01.02.02.02.02.02.04.04.06.06.03.02.05.05.07.07.04.04.07.08.11.12.17.19.32.37.44.56.03.05.06.1.09.14.36.61.47,1.23.42,1.84,0,.11-.02.22-.04.32-.01.07-.03.14-.04.21-.05.2-.12.41-.19.61-.03.07-.06.13-.08.2-.06.14-.13.27-.19.41-.21.41-.45.8-.72,1.2h0s0,0,0,0c1.05.86,2.09,1.73,3.17,2.69,1.38,1.23,2.68,2.46,3.88,3.67.81-.35,1.62-.7,2.43-1.07,3.78-1.27,8.91-2.53,15-2.83,2.03-.1,3.93-.08,5.7.02.06,0,.11-.02.17-.03,4.88-.78,10.65-1.37,17.14-1.38,6.5-.02,12.29.54,17.18,1.29ZM6.52,26.89c-.3-1.7-.7-3.51-1.21-5.4-1.01-3.7-2.26-6.95-3.53-9.7,2.34,1.14,5.38,2.96,8.38,5.84,1.71,1.64,3.05,3.28,4.08,4.74-.82.8-1.95,1.76-3.42,2.64-1.62.97-3.13,1.54-4.3,1.88Zm8.57,23.6c-.95,1.38-2.66,1.04-3.77-.35-1.17-1.47-1.24-6.67-.05-7.7,1.17-.84,2.63-.94,3.34.48,1.19,2.38,2.17,5.12.48,7.57Zm15.36,12.76c-.12,0-.25-.03-.38-.06-.07-.01-.13-.03-.2-.05-.13-.03-.26-.07-.39-.12-.23-.08-.47-.18-.71-.3-.2-.1-.42-.22-.63-.34-.11-.06-.22-.13-.33-.2-.2-.13-.4-.26-.61-.4-.13-.09-.25-.17-.38-.27-2.19-1.62-4.28-3.98-4.24-5.33.22-1.96,1.48-3.54,3.58-2.95.4.11.8.23,1.2.37.19.06.39.13.58.2.16.06.32.12.48.18.06.02.12.04.17.06.15.06.3.12.45.19.03,0,.06.02.1.04.15.06.29.13.44.19.17.08.35.16.51.25.14.07.27.14.41.23.25.13.48.29.72.45.16.1.31.22.46.33.29.22.56.46.81.72.21.21.41.44.59.68.2.26.38.54.55.84.03.06.07.13.1.19.04.07.07.15.11.23.04.09.08.19.12.28.01.02.02.05.03.07.03.09.07.19.1.29,0,0,0,.02,0,.03.04.11.07.23.11.35.03.12.06.24.1.36h0c.52,2.25-1.41,3.66-3.85,3.5Zm46.32-27.35c2.13.04,8.11,6.24,7.99,8.42-.12,2.14-1.46,3.33-3.56,3.43-2.09.11-8.15-6.2-7.97-8.34.17-2.07,1.44-3.27,3.54-3.5Zm-18.61-14.41c4.02-.06,9.95,3.35,9.72,5.68-.2,2.07-1.56,3.27-3.65,3.42-3.68.26-9.83-3.12-9.97-5.57.22-2.22,1.51-3.5,3.9-3.54Zm-13.51,22.56c.42-2.11,1.99-3.55,3.96-2.82,3.38,1.26,6.72,2.94,7.78,6.61-.44,2.51-1.68,3.7-3.83,3.66-2.66-.04-8.31-5.4-7.9-7.46Zm34.8,52.92c-2.18-1.17-3.18-2.67-4.17-3.81-3.8-4.4-6.92-2.74-15.31-7.43-4.97-2.78-9.02-6.23-10.67-7.65-2.18-1.87-3.4-3.21-6.08-5.18-3.12-2.29-5.86-3.89-7.61-4.85,2.55-.4,6.24-.92,10.72-1.3,8.82-.77,13.27-1.23,16.63-.04,6.42,2.28,10.67,7.06,12.86,10.12-.84-1.91-1.65-3.43-2.37-4.5-.93-1.4-3.06-4.05-3.48-4.59-1.25-1.63-2.44-2.77-3.28-3.51-.71-.62-1.3-1.06-4.9-3.63-1.03-.73-1.9-1.35-2.54-1.8,1.8-1.02,3.59-2.04,5.39-3.06.82.47,2.02,1.17,3.41,2.11,4.12,2.76,6.17,4.14,7.52,6.26,1.19,1.88.53,2.19,2.29,10.46.79,3.71.93,3.7,1.39,6.11.21,1.11.44,2.44.63,3.97.12.42.23.87.32,1.33.77,3.91-.22,5.97,1.17,8.49,1.11,2.02,3.08,3.15,4.85,3.82-1.77.12-4.3,0-6.76-1.32Zm17.88-34.59c-1.44,1-3.04.86-3.98-.4-2.11-2.82-3.36-6.12-3.39-9.66-.01-1.56,1.39-2.5,3.4-2.62,3.91.35,3.72,4.16,4.97,6.81,1,2.13,1.33,4.25-1,5.87Z"/><path class="d" d="m68.23,153.71c-.48-.76-.96-1.59-1.4-2.47-.16-.3-.31-.6-.47-.92-.1-.22-.28-.56-.48-1.04-.03-.04-.04-.08-.06-.13-.16-.34-.33-.74-.5-1.2-.08-.19-.14-.36-.19-.49-.03-.08-.06-.14-.09-.22,0-.03-.02-.07-.04-.11,0,0,0,0,0,0-1.35.13-3.45.38-5.95.8-1.57.26-2.89.52-3.89.73,2.17-1.31,5.16-2.9,8.89-4.23h0c-.51-1.6-1.01-3.48-1.43-5.57-.25-1.26-.49-2.48-.68-3.75h0s0,0,0,0c-1.96.16-3.66.39-5.19.7-4.59.92-8.21,2.32-10.55,3.37,6.04-3.85,11.49-5.94,15.46-7.12-.04-1.42.02-2.91.29-4.51,0-.04,0-.1.02-.14.24-1.42.56-2.59.92-3.55,0,0,0,0,0,0,0,0,0,0,0,0-2.1.51-4.54,1.24-7.19,2.34,1.81-1.58,4.8-3.88,8.95-5.75,0,0,0,0,0,0,0,0,0,0,0-.02,1.06-1.45,2.21-2.46,3.04-3.1,1.03-.45,2.05-.9,3.08-1.35-1.2-1.22-2.5-2.44-3.88-3.67-1.08-.96-2.12-1.84-3.17-2.69-.26.02-.52.04-.76.06l-.56.04c-.06,0-.12,0-.17,0-.09,0-.18,0-.27.02h-.03c-.11,0-.22,0-.32.02-.03,0-.07,0-.1,0-.14,0-.28.01-.41.01-.1,0-.18,0-.27,0,0,0,0,0,0,0-.13,0-.25,0-.37,0h-.44c-.08,0-.16,0-.24-.01-.04,0-.08,0-.12,0-.06,0-.13,0-.19,0-.09,0-.18-.02-.26-.02-.06,0-.1-.01-.15-.02-.03,0-.07,0-.1,0-.22-.02-.43-.05-.62-.08-.19-.03-.38-.07-.55-.12-.08-.02-.17-.05-.25-.07-.05-.02-.09-.03-.14-.05-.02,0-.04-.01-.06-.02-.04-.02-.08-.03-.11-.05-.02-.01-.05-.02-.08-.03-.01,0-.03-.01-.03-.02-.11-.05-.2-.1-.29-.16,0,0,0,0,0,0,0,0,0,0,0,0-.04-.02-.07-.04-.1-.06-.02-.01-.04-.03-.06-.04-.02,0-.03-.02-.05-.03h0s0,0,0,0h0s-.02,0-.03,0l-.05-.05s-.03-.03-.06-.05l-.02-.02c-.09-.08-.17-.18-.24-.27h0s-.02-.03-.03-.05c-.03-.04-.06-.07-.08-.11,0,0,0,0,0,0t0,0h0s-.03-.06-.04-.08h0c-.03-.07-.06-.13-.09-.2,0-.03-.02-.05-.03-.08-.02-.05-.03-.1-.05-.15,0-.01,0-.03-.01-.04,0-.04-.02-.07-.03-.11-.01-.05-.03-.1-.03-.16-.01-.05-.02-.1-.03-.15,0,0,0-.01,0-.02h0c-.09-.54-.21-1.31-.14-2.11,0,0,0-.02,0-.02.02-.26.07-.52.14-.78,0,0,0,0,0,0,0,0,0,0,0,0,.02-.08.05-.17.08-.25,0-.02.01-.04.02-.06.01-.03.04-.06.05-.1.07-.16.15-.31.24-.45.01-.02.02-.04.03-.06.03-.04.07-.08.1-.12.04-.05.07-.11.12-.17,0,.01,0,.02,0,.03,0,0,0,0,0,0h0s0-.01,0-.02v-.03c-.08-.15-.18-.29-.29-.44-.18-.29-.39-.55-.61-.81v-.02c-.15-.18-.33-.38-.51-.56l-.17-.17c-.11-.11-.24-.23-.37-.34-.25-.23-.49-.44-.76-.64-.1-.07-.2-.14-.29-.2-.18-.13-.37-.25-.55-.35-.03.04-.06.08-.09.11-.08.09-.15.17-.23.24,0,0,0,0-.01.01-.04.04-.09.07-.13.1-.04.03-.07.06-.11.09-.04.04-.1.08-.15.1,0,0-.01,0-.02,0-.05.03-.1.06-.15.08-.05.03-.1.05-.15.08-.06.02-.12.05-.18.07-.04.02-.08.03-.12.05,0,0,0,0,0,0-.07.03-.15.05-.23.07-.47.15-.99.24-1.55.3-.19.02-.38.04-.57.06-.23.02-.45.03-.69.05h-.03c-.28.03-.52.04-.81.04-.16,0-.33-.02-.48-.02-.03,0-.07-.02-.1,0-.03,0-.07,0-.1,0-.05,0-.09,0-.13,0-.02,0-.03,0-.04,0,0,0,0,0,0,0,0,0-.02,0-.03,0-.56-.04-1.06-.13-1.54-.22-.11-.02-.21-.04-.32-.06-.19-.04-.37-.08-.55-.12-.16-.04-.33-.08-.49-.12-.15-.03-.3-.07-.46-.11-.14-.03-.28-.06-.42-.1-.14-.04-.28-.08-.42-.13-.01,0-.03,0-.04-.01-.35-.11-.7-.23-1.04-.38-.06-.02-.11-.04-.17-.07-.06-.03-.11-.06-.17-.09-.08-.04-.15-.08-.23-.12-.07-.04-.15-.07-.23-.12-.07-.04-.13-.09-.2-.14-.07-.05-.15-.1-.22-.15-.06-.04-.12-.08-.18-.12-.08-.06-.15-.12-.22-.18-.05-.04-.1-.09-.16-.14-.09-.08-.17-.15-.26-.24-.08-.07-.13-.13-.2-.21-.07-.08-.13-.16-.19-.24-.06-.08-.12-.15-.17-.23-.03-.04-.06-.09-.08-.12-.02-.03-.03-.05-.05-.08-.02-.03-.04-.07-.06-.1h0s0,0,0-.02c0,0,0,0,0,0,0-.01-.02-.02-.02-.04-.02-.04-.03-.07-.05-.11,0,0-.01-.01-.01-.02,0-.02-.02-.03-.03-.04-.03-.04-.04-.08-.08-.13-.02-.04-.03-.08-.03-.13,0,0,0,0,0,0,0-.02-.02-.04-.03-.06,0,0,0,0,0-.01,0,0,0,0,0,0,0,0,0,0,0,0h0s0,0,0-.01c0-.02-.02-.06-.03-.08,0-.01,0-.02-.01-.04,0-.03-.02-.05-.02-.08-.01-.03-.02-.07-.03-.11-.06-.22-.13-.52-.15-.88,0-.05,0-.11,0-.16,0-.1,0-.2.01-.31,0-.04,0-.07,0-.11t0,0s.02-.1.03-.14c0-.06.02-.12.04-.18,0-.02,0-.04.01-.06,0-.03.02-.06.03-.09.03-.12.08-.25.13-.37.02-.05.03-.1.06-.14.03-.08.08-.15.12-.23,0,0,0,0,0,0,.02-.03.04-.06.06-.09.04-.07.09-.13.13-.19,0,0,.01-.01.02-.02.05-.07.1-.13.16-.19.03-.03.05-.06.07-.09.04-.04.07-.07.11-.1.04-.03.07-.07.11-.1,0,0,.02-.02.03-.03.04-.04.09-.07.14-.1.17-.12.33-.23.49-.31.02-.01.04-.02.07-.03,0,0,.02,0,.03-.01.28-.13.53-.21.68-.25.03,0,.05-.02.08-.02.03,0,.03,0,.04-.02-.15-.06-.31-.13-.46-.2-.16-.07-.32-.14-.47-.21h-.02c-.31-.13-.62-.27-.95-.41-.31-.14-.62-.29-.95-.43-.64-.27-1.27-.55-1.9-.83h-.02c-.39-.18-.81-.34-1.19-.52-.14-.05-.29-.11-.43-.17-.75-.31-1.48-.6-2.22-.87-.1-.05-.2-.09-.31-.12-.06-.03-.12-.04-.18-.07-.21-.08-.43-.16-.63-.23-.23-.08-.45-.16-.68-.23-.04-.02-.1-.03-.15-.05-.24-.08-.49-.16-.72-.23-.06-.02-.1-.03-.15-.04-.24-.08-.48-.14-.72-.21l-.07-.02-.2-.06-.62-.15c-.34-.09-.67-.18-1.02-.24-.27-.04-.5-.1-.77-.14-.26-.06-.5-.1-.76-.13-.29-.06-.59-.08-.87-.13-.6-.08-1.17-.12-1.78-.16-.19,0-.39-.02-.59-.02h-.03c-.08,0-.18,0-.26,0h0s-.03.05-.05.08c-.19.27-.38.51-.57.74-.18.21-.37.4-.56.58-.04.04-.08.08-.12.11-.03.03-.06.06-.09.08-.05.04-.1.08-.15.12,0,0-.02.02-.03.02-.03.03-.08.06-.1.08-.07.06-.14.11-.21.15,0,0,0,0,0,0,0,0,0,0,0,0,0,0,0,0,0,0-.21.14-.41.25-.63.33,0,0-.01,0-.02.01,0,0,0,0,0,0h0s-.07.03-.1.04c0,0-.02,0-.03,0-.04.02-.08.03-.13.04l-.25.08s-.06.02-.09.02c-.03,0-.06.02-.09.03-.08.02-.18.03-.27.03-.07,0-.14,0-.22,0-.11,0-.22,0-.33,0-.02,0-.04,0-.07,0-.1,0-.2-.03-.31-.04-.03,0-.06-.01-.08-.02-.02,0-.04,0-.07,0-.02,0-.05-.01-.07-.02,0,0,0,0,0,0-.03,0-.06-.02-.09-.03s-.07-.02-.09-.03h0c-.08-.03-.15-.07-.23-.1-.16-.06-.33-.12-.5-.21h0s-.03-.02-.06-.04c-.06-.03-.12-.07-.18-.1-.12-.07-.25-.15-.37-.23l-.6-.48-.34-.27c-.05-.06-.1-.11-.16-.16,0,0-.02-.02-.02-.02h0c-5.64,3.94-8.88,8.23-10.64,10.96-.97,1.52-2.73,4.12-3.69,7.93-.02.05-.03.09-.03.12,0,.04,0,.07,0,.11.09,3.63.18,7.25.28,10.88.34.76.69,1.53,1.03,2.29,3.52,6.35,7.57,9.91,10.38,11.88,6.53,4.59,17.58,8.51,24.02,9.21,2.55.27,4.69.85,6.64,1.86,1.67.88,3.1,2.26,4.31,3.36,1.78,1.6,2.13,2.18,3.33,3.33,2.89,2.75,5.91,4.24,7.36,4.86,1.13.47,2.21.82,3.23,1.08.27.07.53.13.78.18.14.03.28.05.42.08.64.13,1.24.23,1.85.31.7.08,1.38.17,2.09.25.33.03.67.07,1.03.1.31.03.61.05.91.08h.05c.26.02.51.03.75.04.29,0,.59.02.89.03.19,0,.4,0,.6,0-.28-.39-.57-.81-.87-1.27-.28-.42-.57-.86-.85-1.33Zm-50.16-45.85c-1.66-.52-3.3-1.06-4.95-1.6-.47-.16-.88-.36-1.23-.6,0,0-.02-.01-.03-.02-.08-.05-.16-.11-.23-.17-.01,0-.02-.01-.03-.02-.04-.03-.07-.06-.1-.1-.05-.05-.11-.09-.16-.14,0,0-.01-.01-.02-.02-.07-.07-.14-.15-.2-.23-.02-.02-.04-.05-.06-.07-.05-.05-.08-.1-.11-.16-.03-.05-.06-.09-.09-.14-.06-.1-.11-.2-.16-.3-.02-.04-.03-.08-.05-.12-.02-.05-.04-.1-.06-.16-.02-.06-.03-.11-.05-.17-.01-.04-.02-.08-.03-.11,0-.03-.02-.06-.02-.09-.03-.13-.05-.25-.06-.38t0-.03v-.05s0,0,0,0c0,0,0,0,0,0-.05-.39-.1-1.46.57-2.53h0s.03-.05.03-.08c.45-.79,1.09-1.27,1.9-1.52h0s.02,0,.03,0c.11-.04.21-.07.27-.09.05-.01.1-.02.15-.03.05-.01.1-.03.15-.03.06-.01.13-.02.2-.03.3-.04.62-.05.95-.05.07,0,.14,0,.21,0,.3.01.6.04.92.08.97.31,1.97.63,3,.95.39.12.77.24,1.17.36.34.11.67.22,1,.32l1.07.35c.16.05.32.11.48.16.52.17,1.04.34,1.56.52.32.11.64.21.95.32.1.03.21.08.32.11.33.13.69.24,1.04.37.05.03.09.04.14.07.17.07.33.14.48.23,0,0,0,0,0,0,.03.02.07.04.1.06.02.01.05.02.07.04.07.03.13.08.2.13.04.03.07.06.11.09.08.06.16.12.24.19.01.01.03.02.04.03,0,0,.01.02.02.03,0,0,.02.02.03.02.03.03.06.05.09.08.02.02.05.05.07.08.06.07.13.13.18.2,0,0,0,0,0,0,.08.09.15.19.22.3.01.02.02.04.03.06.03.06.07.11.1.17,0,.01.02.03.02.04.05.09.09.18.13.28.01.03.01.06.02.08.03.1.06.2.08.3.02.07.05.14.06.22.02.08.03.17.03.25,0,.11.02.22.02.34,0,.09-.01.18-.02.27,0,.05,0,.09-.01.14-.02.2-.06.4-.11.61,0,.03,0,.06-.02.09,0,0,0,0,0,0h0c-.02.07-.03.14-.06.23,0,.03-.03.08-.04.11-.04.12-.08.22-.13.33-.03.08-.06.15-.1.22-.02.04-.04.09-.06.13-.04.08-.08.16-.13.24-.03.06-.07.1-.11.15-.03.05-.06.09-.1.14-.05.07-.1.15-.15.22-.03.03-.08.08-.11.12-.03.04-.07.06-.1.1-.04.04-.09.09-.14.13-.03.03-.07.07-.1.1-.09.08-.19.15-.3.21-.05.03-.1.07-.16.1-.08.05-.16.09-.24.13,0,0,0,0,0,0-.06.03-.13.05-.2.07-.06.02-.11.04-.17.06-.01,0-.02,0-.04.01-.08.03-.15.05-.23.07-.08.02-.16.02-.25.04-.06,0-.12.02-.18.03-.03,0-.05,0-.07.01-.12,0-.25,0-.38,0-.04,0-.08,0-.12,0-.07,0-.15,0-.22-.02,0,0-.01,0-.02,0-.08-.02-.16-.02-.23-.03h-.05s-.08,0-.13-.03c-.06-.02-.13-.03-.18-.04-.02,0-.03-.01-.05-.02-.02,0-.04,0-.06,0-.44-.11-.89-.24-1.33-.36-.02,0-.04-.01-.06-.01-.03,0-.04,0-.07-.02-.07-.02-.13-.03-.2-.05-.08-.02-.14-.04-.21-.07-.13-.03-.26-.07-.39-.1-.08-.02-.15-.04-.22-.06-.07-.02-.13-.03-.2-.05-.03,0-.07-.02-.1-.03-.48-.13-.96-.28-1.43-.42-.15-.05-.3-.09-.46-.14-.33-.1-.66-.19-.98-.29-.14-.04-.28-.09-.41-.13-.02,0-.02-.01-.04-.02Zm11.58,16.13c0,.07,0,.14,0,.21,0,.06-.01.12-.02.18-.01.09-.02.17-.04.26-.01.05-.02.1-.03.14-.02.09-.05.17-.08.26,0,.03-.01.05-.02.08,0,.02-.02.03-.02.05-.05.11-.1.22-.16.33-.02.04-.04.09-.06.13-.03.05-.07.08-.1.13-.06.08-.12.16-.18.23-.02.02-.04.05-.06.07-.01.01-.03.03-.04.04-.07.07-.14.13-.21.19-.03.02-.05.05-.08.08-.05.04-.12.08-.18.12-.01,0-.03.01-.04.02-.09.05-.18.1-.28.15-.02,0-.04.02-.06.03,0,0-.01,0-.01,0-.01,0-.03.01-.04.02,0,0,0,0,0,0,0,0,0,0,0,.02-.02,0-.03,0-.05,0-.03,0-.07.03-.11.03,0,0-.02,0-.02,0-.09.03-.19.06-.29.08-.04.01-.08.02-.13.03t-.02,0c-.05,0-.1.02-.15.03-.09,0-.18,0-.27,0h-.08c-.13,0-.26-.02-.39-.03h0c-.15-.02-.3-.05-.45-.09-.19-.05-.38-.1-.58-.15-.07-.02-.14-.04-.21-.06-.85-.22-1.74-.45-2.57-.76-.06-.02-.13-.04-.2-.07-.13-.05-.24-.1-.37-.15-.05-.03-.1-.04-.14-.07-.13-.06-.26-.12-.39-.19,0,0,0,0-.01,0-.11-.05-.21-.11-.31-.17-.06-.03-.12-.06-.18-.1-.04-.02-.07-.05-.11-.07-.02-.01-.04-.03-.07-.04-.07-.05-.14-.09-.21-.14-.06-.04-.11-.09-.16-.13-.05-.04-.09-.07-.14-.11-.03-.02-.06-.04-.08-.07-.04-.03-.07-.07-.11-.11-.08-.07-.16-.15-.24-.22,0,0,0,0-.01-.01-.07-.07-.13-.14-.19-.21-.02-.02-.03-.04-.05-.06-.07-.09-.14-.18-.21-.27-.02-.03-.05-.07-.08-.1-.02-.02-.03-.05-.04-.07-.06-.09-.11-.18-.17-.28-.02-.04-.05-.08-.07-.13,0-.03-.02-.04-.02-.05-.02-.03-.03-.06-.05-.09,0-.02-.01-.04-.02-.05-.04-.08-.07-.17-.11-.26-.02-.05-.04-.09-.06-.13-.02-.05-.03-.11-.05-.16-.03-.09-.06-.18-.08-.27,0-.02-.01-.04-.02-.06,0-.03-.02-.08-.03-.12-.02-.05-.02-.09-.03-.14-.02-.1-.05-.19-.07-.29-.01-.07-.02-.14-.02-.21,0,0,0,0,0,0,0,0,0,0,0,0-.01-.13-.02-.26-.02-.38,0,0,0-.02,0-.02,0-.02,0-.03,0-.05,0-.39.08-.74.22-1.05,0,0,0,0,0,0,0,0,0,0,0,0,.02-.06.05-.11.08-.17,0-.02.01-.03.02-.05.03-.08.08-.14.14-.22.03-.03.05-.07.08-.1,0,0,0-.01.01-.02.09-.11.19-.21.3-.31.01-.01.03-.03.04-.04,0,0,0,0,.01,0,.12-.11.26-.2.4-.29.03-.02.07-.04.11-.06.38-.23.82-.4,1.3-.54.01,0,.02,0,.03-.01,0,0,.02,0,.03,0,.19-.05.39-.1.59-.14.01,0,.02,0,.03,0,.01,0,.02,0,.04,0,.15-.03.31-.05.47-.08.17.09.35.18.52.26.24.11.49.22.75.32.09.04.17.07.26.11.1.04.2.08.3.12,1.11.44,2.25.86,3.2,1.49.03.02.07.04.1.07.07.04.12.09.18.13.03.03.07.05.1.08.05.04.1.08.15.12.08.08.18.15.25.23h0c.07.07.13.13.19.2.04.04.07.09.11.13.05.06.1.11.14.17.04.05.09.1.12.15.04.06.08.12.12.18.03.04.05.09.08.13.02.04.05.07.07.11.03.05.07.12.09.18.04.07.08.14.11.22.03.05.05.11.07.16.02.03.03.07.03.1.02.05.03.11.05.16.03.1.07.21.09.31,0,0,0,.02,0,.03.03.11.06.22.08.34.02.06.03.11.04.17.02.13.03.25.04.37,0,.02,0,.04,0,.06,0,.08,0,.16,0,.24Zm16.46.31s-.05,0-.07,0c-.03,0-.05,0-.08,0-.32-.03-.66-.05-1-.06-.4-.01-.81-.03-1.22-.05h-.09c-.08,0-.18,0-.26-.02-.08,0-.17-.02-.26-.03-.04,0-.08,0-.13,0-.03,0-.04,0-.06,0-.05,0-.1,0-.15-.02h-.03c-.16-.03-.34-.05-.49-.08-.15-.03-.29-.07-.43-.11-.09-.03-.18-.06-.27-.09-.03,0-.06-.03-.09-.04l-.08-.03s-.02,0-.02-.01c-.07-.03-.13-.06-.19-.09,0,0-.01,0-.02,0-.02,0-.04-.03-.07-.03-.01,0-.02-.01-.03-.02-.42-.23-.77-.56-1.03-1.02,0,0-.01-.01-.02-.02,0,0,0-.02-.01-.03-.04-.08-.09-.17-.12-.26,0-.02-.02-.03-.02-.05-.05-.1-.08-.21-.12-.33-.01-.05-.02-.1-.04-.15-.03-.11-.06-.22-.07-.34,0-.02,0-.04,0-.06-.02-.11-.03-.22-.04-.33,0,0,0,0,0-.02-.02-.08-.02-.18-.03-.27,0-.05,0-.09,0-.14,0-.04,0-.08,0-.13,0-.13,0-.27.02-.39,0-.02,0-.03,0-.05,0-.08.01-.16.02-.24,0-.03,0-.07.01-.1,0-.07.02-.13.03-.19,0,0,0,0,0,0,0-.03,0-.06,0-.08.02-.07.03-.13.05-.18.02-.07.05-.14.07-.2.01-.03.02-.07.04-.1.01-.03.02-.07.04-.11,0-.03.02-.04.03-.06.02-.04.04-.07.06-.1.04-.07.08-.14.12-.21.02-.02.03-.05.05-.07,0-.02.02-.03.03-.04.21-.29.46-.52.75-.7,0,0,.01-.01.02-.02.07-.04.13-.08.19-.11,0,0,0,0,.01,0,.03-.02.06-.03.09-.05.04-.02.07-.04.11-.06.05-.03.11-.04.16-.07,0,0,.03,0,.03,0,0,0,0,0,.01,0,.16-.06.34-.11.51-.15,0,0,.02,0,.03,0,.02,0,.04,0,.07-.02.04-.02.08-.03.13-.03.13-.02.24-.04.37-.04.03,0,.08-.02.13-.02.07,0,.12-.03.18-.03h.13s.09,0,.13,0c.19,0,.38,0,.57,0h.14c.06,0,.12,0,.17.02h.03c.07,0,.13,0,.21.02.11,0,.23.03.33.03.02,0,.03,0,.05,0,.38.05.78.08,1.2.1.39.02.79.04,1.18.06.07,0,.14,0,.2.01.02,0,.04,0,.05,0,.06,0,.12.01.19.02.01,0,.02,0,.03,0,.02,0,.04,0,.06,0,.2.02.4.05.59.08.04,0,.09,0,.13.02.04,0,.08.02.12.02.02,0,.05,0,.07.01.02,0,.04,0,.06.01.12.03.23.05.34.08,0,0,0,0,.01,0,.05.02.11.03.16.05.05.02.1.03.14.05.05.02.09.04.14.06.06.03.13.05.19.08.01,0,.03.01.04.02.05.02.09.04.13.07.02.01.04.03.06.04.05.03.11.06.16.09.07.04.14.09.2.14.01,0,.02.02.04.03.08.07.16.14.23.22.04.04.08.08.11.12,0,0,.01.02.02.02.06.07.11.15.16.23.01.02.03.04.05.07.02.03.03.06.04.08.05.09.1.18.14.28.03.07.06.14.09.22,0,.01,0,.03.01.04.03.1.06.2.09.31,0,.03.02.06.03.09,0,.07.03.13.03.2,0,0,0,.01,0,.02.02.1.03.2.04.31,0,.05.01.1.02.16v.08c0,.13.02.26.02.39v.27s0,.03,0,.05c0,.02,0,.03,0,.05,0,.02,0,.03,0,.05,0,.1-.02.19-.03.28,0,.06-.02.12-.03.18,0,.02-.01.04-.02.06-.01.06-.03.11-.04.16-.01.04-.02.07-.03.11,0,.03-.02.05-.03.08-.03.1-.07.2-.12.29,0,.02-.02.05-.03.07-.02.04-.03.07-.04.1,0,0,0,.02-.02.02,0,0,0,.01-.01.02-.22.39-.51.7-.87.94-.05.04-.1.07-.16.11-.04.02-.08.04-.12.06-.03.01-.05.03-.08.04-.04.02-.07.04-.1.05l-.05.03s-.07.02-.1.04c-.06.02-.12.05-.18.07h0c-.07.04-.13.06-.2.08-.03,0-.06,0-.09.01-.72.19-1.55.23-2.41.15-.04,0-.08,0-.12,0-.06,0-.13-.02-.18-.03-.02,0-.04,0-.06,0Z"/><path class="e" d="m88.19,112.06c-6.09.29-11.22,1.56-15,2.83-.81.37-1.62.72-2.43,1.07-1.03.45-2.05.9-3.08,1.35-.82.64-1.98,1.64-3.04,3.1.16-.07.33-.13.49-.2.49-.22,1-.42,1.52-.62,0,0,0,0,0,0h0c.14-.05.28-.1.42-.15.47-.17.95-.34,1.44-.51,6.41-2.05,11.92-1.84,15.02-1.49,0,0,0,0,0,0,0,0,0,0,0,0,0,0,0,.02.01.02.07.11.14.23.22.37.03.06.06.11.09.18.07.12.13.26.19.4.03.06.06.12.08.19.08.19.16.39.23.61,0,.02.01.04.02.06.01.05.03.09.04.14.02.06.04.12.05.18.03.13.07.28.09.42,0,.04.01.08.02.11,0,.04.02.08.03.13.06.37.08.71.08,1.04,0,.2,0,.39-.01.57,0,.08-.01.16-.02.23-.02.18-.04.35-.06.5,0,.02,0,.05,0,.07-.02.14-.05.27-.08.39,0,.04-.02.08-.03.12h0s0,0,0,0c-.52-.05-1.08-.1-1.66-.15,0,0,0,0,0,0-.07,0-.15-.01-.23-.02-.39-.03-.79-.06-1.2-.09-.37-.03-.75-.05-1.13-.08-.16-.01-.32-.02-.49-.03-.38-.02-.77-.05-1.17-.07-.57-.03-1.14-.06-1.74-.09-.52-.02-.96-.04-1.37-.06-.05,0-.1,0-.14,0-.3-.01-.58-.02-.87-.02-.12,0-.24,0-.35,0-.19,0-.39,0-.58,0-.09,0-.18,0-.28,0-.33,0-.66.01-.98.02-.48.02-.96.04-1.43.07-.2.01-.38.02-.57.04-.09,0-.19.01-.28.02-.22.02-.44.04-.66.06-.34.03-.66.06-.98.1-.18.02-.35.04-.52.06-.18.02-.34.05-.51.07-.07.01-.14.02-.21.03-.12.02-.23.03-.35.05-.12.02-.23.03-.34.05-.32.06-.61.11-.89.15l-.15.03c-.11.02-.22.04-.34.06-.16.03-.31.06-.47.09-.47.09-.97.2-1.49.32-.08.02-.16.04-.25.06-.36.96-.68,2.13-.92,3.55-.02.04-.02.1-.02.14-.27,1.6-.33,3.1-.29,4.51,0,0,0,0,0,0,.03,0,.06-.02.1-.03.26-.08.52-.16.77-.22.12-.03.22-.06.34-.09.16-.04.33-.09.49-.13.45-.12.9-.23,1.33-.33.86-.2,1.68-.37,2.49-.53.14-.03.28-.06.41-.08.17-.03.34-.06.51-.09.95-.17,1.86-.3,2.74-.42.25-.03.5-.07.74-.1.78-.1,1.53-.18,2.26-.26.44-.05.88-.09,1.3-.14,3.77-.4,6.69-.5,8.88-.49,1.22,0,2.21.04,2.98.08.12,0,.23.02.35.02.18.01.34.02.5.04.53.04.98.07,1.33.1,0,0,0,0,0,0,0,0,0,0,0,0,.18.3.36.64.55,1.02.05.1.09.2.14.3.02.05.05.1.07.16.08.18.16.37.24.57.15.38.3.78.43,1.22.02.07.04.14.06.21l.09.3c.03.11.05.21.07.32.03.12.06.24.08.36.04.19.07.37.1.55.02.14.05.28.07.42,0,.06.02.12.03.18,0,.08.02.15.03.23,0,.01,0,.02,0,.03.02.16.03.3.04.45,0,.04,0,.08.01.12.02.13.02.23.03.35,0,0,0,0,0,0,0,0,0,0,0,0-1.27-.13-2.83-.27-4.63-.42-.07,0-.14-.01-.21-.02-1.38-.11-2.89-.23-4.51-.34-.31-.02-.62-.04-.94-.06-.14,0-.28-.02-.43-.03-.12,0-.25-.02-.37-.02-.37-.02-.76-.05-1.14-.07-.64-.04-1.29-.07-1.97-.1-.23,0-.46-.03-.7-.03-.47-.03-.96-.05-1.45-.07-.31,0-.61-.03-.91-.03-.43-.02-.85-.03-1.26-.04-1.35-.04-2.61-.06-3.8-.07-.12,0-.25,0-.37,0-.47,0-.92,0-1.37,0-.28,0-.55,0-.82.01-.13,0-.26,0-.39,0-.27,0-.55.01-.82.02-.52.02-1.01.04-1.5.06-.35.02-.68.04-1.01.06-.08,0-.16,0-.23.02-.16.02-.32.03-.47.04.18,1.27.43,2.49.68,3.75.43,2.1.92,3.98,1.43,5.57h0s0,0,0,0c0,0,0,0,0,0h0c.17-.06.36-.12.53-.18.52-.18,1.05-.36,1.6-.53.23-.07.45-.14.69-.2.33-.1.65-.19.99-.28.09-.02.18-.04.26-.07.06-.01.11-.03.16-.05.48-.13.96-.24,1.46-.35.15-.03.29-.06.44-.09.23-.05.46-.1.69-.15.36-.07.71-.13,1.07-.2,0,0,0,0,0,0,.21-.04.41-.07.62-.1.5-.08.99-.16,1.48-.22.24-.03.47-.06.7-.09.14-.02.28-.04.41-.05.34-.03.67-.07,1-.1.09,0,.17-.01.26-.02.05,0,.1,0,.15-.01.03,0,.06,0,.09,0,.16,0,.32-.02.48-.03.45-.03.9-.06,1.33-.08.01,0,.02,0,.03,0,.05,0,.11,0,.16,0,.22,0,.45-.01.66-.02.23,0,.45,0,.67,0,.19,0,.39,0,.58,0,.43,0,.84,0,1.25.02.1,0,.19,0,.29.01.07,0,.13,0,.19,0,.67.02,1.31.05,1.91.1.36.03.72.06,1.06.09,0,0,0,0,0,0,.02.04.04.08.07.12.05.09.11.19.16.3.01.03.03.05.04.07,0,0,0,.01,0,.02.04.08.08.17.13.26,0,.02.02.03.02.05.04.1.09.2.13.31,0,.02.02.04.02.06,0,0,0,0,0,.01.21.55.4,1.23.48,2.02,0,.01,0,.02,0,.03.13,1.37-.15,2.47-.36,3.09h0s0,0,0,0c-.63-.14-1.23-.26-1.82-.37-.18-.03-.36-.07-.53-.1-.5-.09-.99-.17-1.47-.25-.19-.03-.37-.05-.55-.08-.44-.06-.87-.12-1.28-.18-.08,0-.16-.02-.24-.03-.54-.06-1.06-.12-1.54-.17-.19-.02-.37-.03-.56-.05-.07,0-.14-.01-.21-.02-.46-.04-.9-.07-1.34-.1-.08,0-.15-.01-.23-.01-.51-.03-1.01-.05-1.5-.06-.15,0-.29,0-.43-.01-1.05-.02-2.04-.02-2.96,0-.49.02-.96.03-1.42.05-.6.03-1.16.06-1.68.09-.2,0-.39.02-.58.04-.44.03-.87.07-1.25.1-.27.02-.74.06-1.37.13.02.03.03.07.04.11.03.08.06.14.09.22.05.13.12.3.19.49.18.46.34.86.5,1.2.02.04.03.08.06.13.15.34.31.68.48,1.04.16.32.31.62.47.92.47.89.94,1.71,1.4,2.47.29.48.58.91.85,1.33.3.46.6.88.87,1.27h.02c.13,0,.26,0,.39,0,.34,0,.69,0,1.03,0,.28,0,.55-.02.81-.03.44,0,.86-.03,1.31-.04.11,0,.25,0,.38,0,.27-.02.54-.03.82-.04.33-.02.68-.04,1.07-.07.14,0,.29-.02.44-.03.08,0,.15,0,.23-.02.57-.05,1.2-.11,1.86-.18.2-.02.39-.04.59-.06.27-.04.55-.07.85-.11.24-.03.49-.06.76-.1.19-.03.39-.05.58-.08.6-.08,1.21-.18,1.83-.3.02,0,.04,0,.06,0,.02,0,.03,0,.06-.02.1,0,.2-.03.31-.03.15-.03.29-.05.44-.08h0s.03,0,.03,0c.13-.02.23-.04.35-.07.03,0,.04,0,.06-.02.03,0,.06,0,.08-.02.11-.03.22-.05.34-.08,0,0,.02,0,.03,0,.56-.12,1.11-.23,1.64-.34.18-.03.36-.08.53-.12.74-.17,1.44-.35,2.13-.54.23-.06.45-.13.67-.18.06-.02.12-.03.18-.05.08-.02.15-.03.23-.06.14-.04.29-.08.42-.13,0,0,.02,0,.02,0,.28-.08.55-.17.83-.25.02,0,.03,0,.06,0,0,0,0,0,.02,0,0,0,.03,0,.03,0,.02,0,.03-.02.03-.02.03,0,.07-.02.1-.03.05,0,.1-.03.16-.05.03,0,.05-.02.08-.03.06-.02.13-.04.19-.07.03,0,.07-.03.11-.03t.02,0c.12-.03.23-.06.34-.12.07-.03.14-.04.21-.07.03,0,.06-.03.08-.03,1.2-.44,3.07-1.18,5.21-2.26.15-.08.31-.16.49-.26,0,0,0,0,.02,0,.13-.08.26-.14.39-.22.03,0,.04-.03.07-.04,4.7-2.73,7.66-5.9,8.61-6.95,1.29-1.44,2.94-3.52,4.49-6.32-1.34-.68-2.7-1.37-4.03-2.05-.02,0-.02,0-.03,0-3.28-1.55-8.63-4.76-11.99-10.85-.48-.64-1.2-1.7-1.47-3.23,0-.02-.02-.04-.02-.06-.32-1.19-.62-2.61-.8-4.2-.17-1.56-.19-2.95-.17-4.16.12,0,.24-.04.36-.05-1.78-.1-3.67-.12-5.7-.02Z"/></g></svg>